<svg width="153" height="82" fill="none" xmlns="http://www.w3.org/2000/svg"><path d="M77.785 39.721L43.156 4.844a1.787 1.787 0 00-2.539 0L5.988 39.721a1.818 1.818 0 000 2.558l34.63 34.877a1.787 1.787 0 002.538 0l34.63-34.877a1.817 1.817 0 000-2.558z" fill="url(#paint0_linear)"/><path d="M54.93 64.587c-4.352 2.278-3.375 2.19-8.695 2.643-5.321.453-10.674-.463-15.454-2.644-4.78-2.18-8.797-5.54-11.596-9.697-2.798-4.157-4.266-8.947-4.238-13.826.027-4.88 1.55-9.656 4.395-13.786 2.846-4.13 6.9-7.452 11.705-9.587 4.805-2.136 10.168-3 15.483-2.497 5.315.503 6.672.855 10.894 3.846l-2.494 8.79c-2.732-1.935-6.003-3.133-9.442-3.459-3.44-.326-6.91.234-10.02 1.616-3.109 1.382-5.732 3.53-7.574 6.204-1.84 2.673-2.826 5.763-2.844 8.92-.018 3.158.932 6.257 2.743 8.947 1.81 2.69 4.41 4.864 7.503 6.276a20.058 20.058 0 0010 1.71c3.444-.293 6.727-1.46 9.482-3.37l.152 9.913z" fill="#242A3D"/><path d="M75.49 16.745c-.85 0-1.51.323-1.977.97-.467.642-.7 1.539-.7 2.69 0 2.396.892 3.595 2.678 3.595.749 0 1.656-.19 2.722-.567v1.912c-.876.367-1.854.55-2.934.55-1.552 0-2.74-.472-3.561-1.418-.823-.95-1.234-2.313-1.234-4.087 0-1.117.202-2.094.606-2.932.404-.843.983-1.487 1.737-1.933.76-.451 1.647-.677 2.664-.677 1.036 0 2.077.253 3.123.758l-.73 1.852c-.399-.191-.8-.358-1.204-.5a3.57 3.57 0 00-1.19-.213zm11.575.786v1.684h-2.671v6.534h-2.226v-6.534H79.49V17.53h7.575zm6.006 8.365c-.958 0-1.71-.35-2.255-1.051H90.7c.078.686.117 1.083.117 1.19v3.33H88.59V17.531h1.81l.314 1.066h.102c.52-.813 1.292-1.22 2.314-1.22.963 0 1.717.375 2.262 1.125.545.75.817 1.79.817 3.123 0 .878-.129 1.64-.386 2.286-.253.647-.616 1.14-1.088 1.478-.472.338-1.026.507-1.664.507zm-.656-6.726c-.55 0-.952.172-1.205.515-.253.338-.384.9-.394 1.683v.243c0 .882.13 1.514.387 1.896.263.382.676.573 1.24.573.998 0 1.497-.828 1.497-2.484 0-.808-.124-1.414-.373-1.816-.243-.406-.627-.61-1.152-.61zm7.407 2.455c0 .814.131 1.429.394 1.845.267.417.7.625 1.299.625.594 0 1.019-.206 1.277-.617.263-.417.394-1.034.394-1.853 0-.813-.131-1.423-.394-1.83-.263-.407-.693-.61-1.292-.61-.593 0-1.021.204-1.284.61-.263.402-.394 1.012-.394 1.83zm5.641 0c0 1.338-.35 2.384-1.051 3.139-.7.755-1.676 1.132-2.926 1.132-.784 0-1.475-.172-2.073-.515a3.46 3.46 0 01-1.38-1.492c-.32-.647-.481-1.401-.481-2.264 0-1.342.348-2.386 1.044-3.13.696-.746 1.673-1.118 2.934-1.118.783 0 1.474.172 2.072.515a3.42 3.42 0 011.379 1.477c.321.642.482 1.394.482 2.256zm3.992-4.094v3.25c0 .342-.056 1.18-.168 2.513l3.766-5.763h2.678v8.218h-2.153V22.47c0-.584.049-1.407.146-2.47l-3.751 5.748h-2.671V17.53h2.153zm15.369 0v1.684h-2.671v6.534h-2.226v-6.534h-2.678V17.53h7.575zm4.904 1.441c-.472 0-.841.152-1.109.456-.268.299-.421.725-.46 1.279h3.124c-.01-.554-.154-.98-.431-1.28-.277-.303-.652-.455-1.124-.455zm.314 6.924c-1.313 0-2.34-.365-3.079-1.095-.74-.73-1.11-1.764-1.11-3.102 0-1.377.341-2.44 1.022-3.19.686-.755 1.632-1.132 2.839-1.132 1.153 0 2.051.33 2.693.992.642.662.963 1.576.963 2.742v1.088h-5.262c.025.637.212 1.134.562 1.492.35.358.842.536 1.475.536.491 0 .955-.051 1.393-.154a6.922 6.922 0 001.372-.492v1.734c-.389.196-.805.34-1.248.434-.443.098-.983.147-1.62.147zm12.443-.147h-2.226v-6.534h-2.05c-.156 1.837-.346 3.21-.57 4.116-.224.901-.523 1.555-.897 1.962-.37.402-.857.603-1.46.603-.516 0-.939-.079-1.27-.235v-1.794c.239.098.477.147.715.147.278 0 .509-.2.694-.602.189-.402.357-1.071.503-2.007.151-.941.28-2.232.387-3.874h6.174v8.218zm4.569-5.042h1.569c1.255 0 2.184.2 2.787.602.604.402.905 1.01.905 1.823 0 1.745-1.202 2.617-3.605 2.617h-3.882V17.53h2.226v3.176zm3.036 2.455c0-.319-.127-.55-.38-.691-.253-.143-.63-.213-1.131-.213h-1.525v1.94h1.554c.988 0 1.482-.346 1.482-1.036z" fill="#D7D7D7"/><defs><linearGradient id="paint0_linear" x1="60.471" y1="22.283" x2="23.037" y2="59.45" gradientUnits="userSpaceOnUse"><stop stop-color="#D0D0D0"/><stop offset=".492" stop-color="#fff"/><stop offset="1" stop-color="#C4C4C4"/></linearGradient></defs></svg>